.
..............................Site Info...........................

 -   http://www.scenetime.com  *_*   

SceneTime is going to Close sign up on march/1, hurry up! get in before the doors are closed.

     We care to share . Join us on  http://www.scenetime.com 

    Be the first to get new release at  http://www.scenetime.com

        Seed back for speed


...................................NFO:.................................................[IMG]http://img444.imageshack.us/img444/8883/jedgarmovie.jpg[/IMG]

Complete name                    : J.Edgar.2011.v2.BRRip.READNFO.x264.AC3-DTRG.mkv
Format                           : Matroska
Format version                   : Version 2
File size                        : 698 MiB
Duration                         : 2h 16mn
Overall bit rate                 : 713 Kbps
Encoded date                     : UTC 2012-02-11 15:33:00
Writing application              : mkvmerge v5.2.1 ('A Far Off Place') built on Jan  2 2012 23:21:10
Writing library                  : libebml v1.2.3 + libmatroska v1.3.0

Video
ID                               : 1
Format                           : AVC
Format/Info                      : Advanced Video Codec
Format profile                   : Main@L4.2
Format settings, CABAC           : Yes
Format settings, ReFrames        : 4 frames
Codec ID                         : V_MPEG4/ISO/AVC
Duration                         : 2h 16mn
Bit rate                         : 583 Kbps
Width                            : 720 pixels
Height                           : 304 pixels
Display aspect ratio             : 2.35:1
Frame rate                       : 23.976 fps
Color space                      : YUV
Chroma subsampling               : 4:2:0
Bit depth                        : 8 bits
Scan type                        : Progressive
Bits/(Pixel*Frame)               : 0.111
Stream size                      : 559 MiB (80%)
Writing library                  : x264 core 120 r2146 bcd41db
Language                         : English
Default                          : Yes
Forced                           : No
Source                           : 720p SPARKS, cheers...

Audio
ID                               : 2
Format                           : AC-3
Format/Info                      : Audio Coding 3
Mode extension                   : CM (complete main)
Codec ID                         : A_AC3
Duration                         : 2h 16mn
Bit rate mode                    : Constant
Bit rate                         : 128 Kbps
Channel(s)                       : 2 channels
Channel positions                : Front: L R
Sampling rate                    : 48.0 KHz
Bit depth                        : 16 bits
Compression mode                 : Lossy
Stream size                      : 125 MiB (18%)
Default                          : Yes
Forced                           : No
Source                           : 720p SPARKS, cheers...

iMDB: http://www.imdb.com/title/tt1616195/

Encoder: Kareemzos..

DTRG bringing the p2p world yet another release, J Edgar 2011 BRRip.......

straight forward encode tbh, sharpened and x264'd it...
low bandwidth users, this ones for you.....
readnfo is for 1 reason, the colors aren't right
on this but tbh with ya its bluray so
i hate messing with them so left them untouched...
take it or leave it, there's plenty of releases out there....
check the sample before downloading because the screens cant tell you the real Q of
the release, enjoy folks.....

[b][i][size=6]SCREENSHOTS:[/b][/i][/size]

[IMG]http://img195.imageshack.us/img195/3702/22752541.png[/IMG]
[IMG]http://img855.imageshack.us/img855/1969/77024144.png[/IMG]
[IMG]http://img80.imageshack.us/img80/4143/66911449.png[/IMG]
[IMG]http://img696.imageshack.us/img696/1170/31246541.png[/IMG]
[IMG]http://img268.imageshack.us/img268/9574/55515742.png[/IMG]
[IMG]http://img341.imageshack.us/img341/689/52707828.png[/IMG]

Greetz to EMBER, ETRG, BHRG, FYA, 26k, CreWSaDe, RemixHD, LEGiTiMATE.......and maybe many more...........